<?xml version="1.0" standalone="no"?><!DOCTYPE svg PUBLIC "-//W3C//DTD SVG 1.1//EN" "http://www.w3.org/Graphics/SVG/1.1/DTD/svg11.dtd"><svg t="1777617827965" class="icon" viewBox="0 0 1024 1024" version="1.1" xmlns="http://www.w3.org/2000/svg" p-id="10038" xmlns:xlink="http://www.w3.org/1999/xlink" width="200" height="200"><path d="M556.614108 509.875519c29.742739-16.995851 46.738589-46.738589 46.738589-84.979253 0-55.236515-42.489627-97.726141-97.726141-97.726142s-97.726141 42.489627-97.726141 97.726142c0 33.991701 21.244813 67.983402 46.738589 84.979253-80.73029 25.493776-144.46473 118.970954-144.46473 225.19502h382.406639c8.497925-110.473029-50.987552-199.701245-135.966805-225.19502z" fill="#1660CF" p-id="10039"></path><path d="M947.518672 713.825726c16.995851-46.738589 25.493776-101.975104 25.493776-157.211618 0-208.19917-135.966805-386.655602-327.170124-441.892116C633.095436 46.738589 577.858921 0 509.875519 0S386.655602 46.738589 373.908714 114.721992C182.705394 169.958506 46.738589 348.414938 46.738589 556.614108c0 55.236515 8.497925 106.224066 25.493776 157.211618-42.489627 21.244813-72.232365 67.983402-72.232365 123.219917C0 913.526971 63.73444 977.261411 140.215768 977.261411c38.240664 0 72.232365-16.995851 97.726141-42.489627 76.481328 55.236515 169.958506 89.228216 271.93361 89.228216s195.452282-33.991701 271.93361-89.228216c25.493776 25.493776 59.485477 42.489627 97.726141 42.489627 76.481328 0 140.215768-63.73444 140.215767-140.215768 0-55.236515-29.742739-101.975104-72.232365-123.219917z m-67.983402 186.954357c-16.995851 0-33.991701-8.497925-46.73859-16.995851-8.497925-8.497925-12.746888-16.995851-16.99585-25.493776-4.248963-8.497925-4.248963-16.995851-4.248963-25.493776 0-38.240664 29.742739-67.983402 67.983403-67.983402h4.248962c8.497925 0 21.244813 4.248963 29.742739 8.497925 21.244813 12.746888 33.991701 33.991701 33.991701 59.485477 0 38.240664-29.742739 67.983402-67.983402 67.983403zM446.141079 110.473029c8.497925-25.493776 33.991701-42.489627 63.73444-42.489627s50.987552 16.995851 63.73444 42.489627c4.248963 8.497925 4.248963 16.995851 4.248962 25.493776v4.248963c-4.248963 33.991701-33.991701 63.73444-67.983402 63.734439s-63.73444-29.742739-67.983403-63.734439v-4.248963c0-4.248963 4.248963-16.995851 4.248963-25.493776zM182.705394 883.784232c-12.746888 12.746888-29.742739 16.995851-46.738589 16.995851-38.240664 0-67.983402-29.742739-67.983403-67.983403 0-25.493776 12.746888-46.738589 33.991702-59.485477 8.497925-4.248963 16.995851-8.497925 29.742738-8.497925h4.248963c38.240664 0 67.983402 29.742739 67.983402 67.983402 0 8.497925 0 16.995851-4.248962 25.493776 0 8.497925-8.497925 16.995851-16.995851 25.493776z m552.365145-12.746888c-63.73444 46.738589-140.215768 72.232365-225.19502 72.232366s-161.460581-25.493776-225.195021-72.232366c-4.248963 0-4.248963-4.248963-8.497925-8.497925 0-8.497925 4.248963-16.995851 4.248962-29.742739 0-72.232365-55.236515-131.717842-127.468879-135.966804 0-4.248963-4.248963-8.497925-4.248963-8.497926-12.746888-42.489627-21.244813-84.979253-21.244813-131.717842 0-169.958506 106.224066-310.174274 259.186722-365.410788 21.244813 50.987552 67.983402 84.979253 127.468879 84.979253s106.224066-33.991701 127.46888-84.979253c148.713693 50.987552 259.186722 195.452282 259.186722 365.410788 0 46.738589-8.497925 89.228216-21.244813 131.717842 0 4.248963-4.248963 8.497925-4.248963 8.497926-72.232365 4.248963-127.46888 63.73444-127.46888 135.966804 0 8.497925 0 16.995851 4.248963 29.742739-8.497925 0-12.746888 4.248963-16.995851 8.497925z" fill="#1660CF" p-id="10040"></path></svg>