<?xml version="1.0" standalone="no"?><!DOCTYPE svg PUBLIC "-//W3C//DTD SVG 1.1//EN" "http://www.w3.org/Graphics/SVG/1.1/DTD/svg11.dtd"><svg t="1777700363288" class="icon" viewBox="0 0 1024 1024" version="1.1" xmlns="http://www.w3.org/2000/svg" p-id="11162" xmlns:xlink="http://www.w3.org/1999/xlink" width="200" height="200"><path d="M430.042353 620.009412l148.178823 0.225882a13.854118 13.854118 0 0 0 12.009412-6.927059l73.901177-128.941176a13.854118 13.854118 0 0 0 0-13.778824l-74.352941-129.392941a13.929412 13.929412 0 0 0-11.934118-6.927059l-148.178824-0.263529a13.967059 13.967059 0 0 0-12.009411 6.964706l-73.901177 128.941176a13.854118 13.854118 0 0 0 0 13.778824l74.390588 129.28a13.929412 13.929412 0 0 0 11.896471 7.04z m-26.352941-147.124706l46.192941-74.315294a8.357647 8.357647 0 0 1 7.077647-3.764706h93.816471a8.357647 8.357647 0 0 1 7.077647 3.764706l46.494117 74.503529a8.282353 8.282353 0 0 1 0 8.809412l-46.192941 74.127059a8.357647 8.357647 0 0 1-7.077647 3.764706h-93.891765a8.470588 8.470588 0 0 1-7.077647-3.576471L403.614118 481.882353a8.282353 8.282353 0 0 1 0-8.997647z" p-id="11163" fill="#d81e06"></path><path d="M503.943529 477.063529m-30.117647 0a30.117647 30.117647 0 1 0 60.235294 0 30.117647 30.117647 0 1 0-60.235294 0Z" p-id="11164" fill="#d81e06"></path><path d="M231.642353 153.374118a90.352941 90.352941 0 1 0-90.352941 90.352941 90.352941 90.352941 0 0 0 90.352941-90.352941z m-120.470588 0a30.117647 30.117647 0 1 1 30.117647 30.117647 30.117647 30.117647 0 0 1-30.117647-30.117647zM864.112941 763.632941a90.352941 90.352941 0 1 0 90.352941 90.352941 90.352941 90.352941 0 0 0-90.352941-90.352941z m0 120.470588a30.117647 30.117647 0 1 1 30.117647-30.117647 30.117647 30.117647 0 0 1-30.117647 30.117647zM921.185882 311.491765a188.235294 188.235294 0 0 0-188.235294-188.235294H314.465882a30.117647 30.117647 0 0 0 0 60.235294h418.484706a128 128 0 1 1 0 256h-11.89647a30.117647 30.117647 0 1 0 0 60.235294h11.89647a188.235294 188.235294 0 0 0 188.235294-188.235294zM702.832941 823.868235H284.348235a128 128 0 0 1 0-256h11.896471a30.117647 30.117647 0 0 0 0-60.235294h-11.896471a188.235294 188.235294 0 0 0 0 376.470588h418.484706a30.117647 30.117647 0 0 0 0-60.235294z" p-id="11165" fill="#d81e06"></path></svg>