<?xml version="1.0" standalone="no"?><!DOCTYPE svg PUBLIC "-//W3C//DTD SVG 1.1//EN" "http://www.w3.org/Graphics/SVG/1.1/DTD/svg11.dtd"><svg t="1777700329514" class="icon" viewBox="0 0 1024 1024" version="1.1" xmlns="http://www.w3.org/2000/svg" p-id="9204" xmlns:xlink="http://www.w3.org/1999/xlink" width="200" height="200"><path d="M828.117333 915.114667H195.84a94.976 94.976 0 0 1-94.848-94.848V267.050667A94.976 94.976 0 0 1 195.84 172.202667h632.277333a94.976 94.976 0 0 1 94.848 94.848v553.301333a94.976 94.976 0 0 1-94.848 94.762667zM195.84 235.349333a31.701333 31.701333 0 0 0-31.658667 31.616v553.301334a31.701333 31.701333 0 0 0 31.658667 31.616h632.277333a31.701333 31.701333 0 0 0 31.658667-31.616V267.050667a31.701333 31.701333 0 0 0-31.658667-31.616z" fill="#19AE78" p-id="9205"></path><path d="M385.536 298.581333a31.573333 31.573333 0 0 1-31.616-31.616V140.501333a31.616 31.616 0 0 1 63.232 0v126.549334a31.616 31.616 0 0 1-31.616 31.530666z" fill="#19AE78" p-id="9206"></path><path d="M638.421333 298.581333a31.573333 31.573333 0 0 1-31.573333-31.616V140.501333a31.616 31.616 0 1 1 63.189333 0v126.549334a31.573333 31.573333 0 0 1-31.616 31.530666z" fill="#19AE78" p-id="9207"></path><path d="M595.456 786.645333a31.530667 31.530667 0 0 1-18.517333-5.973333l-117.589334-84.949333a31.658667 31.658667 0 0 1 37.077334-51.2l90.24 65.237333 166.784-264.917333a31.616 31.616 0 1 1 53.504 33.706666l-184.746667 293.418667a31.530667 31.530667 0 0 1-20.736 14.208 32 32 0 0 1-6.016 0.469333z" fill="#19AE78" p-id="9208"></path><path d="M555.946667 407.253333H236.8a31.573333 31.573333 0 1 1 0-63.189333h319.146667a31.573333 31.573333 0 1 1 0 63.189333z" fill="#19AE78" p-id="9209"></path><path d="M378.112 786.645333H251.648a31.616 31.616 0 1 1 0-63.189333h126.464a31.616 31.616 0 1 1 0 63.189333z" fill="#19AE78" p-id="9210"></path><path d="M456.149333 596.949333H236.8a31.573333 31.573333 0 1 1 0-63.189333h219.349333a31.573333 31.573333 0 1 1 0 63.189333z" fill="#19AE78" p-id="9211"></path></svg>