<?xml version="1.0" standalone="no"?><!DOCTYPE svg PUBLIC "-//W3C//DTD SVG 1.1//EN" "http://www.w3.org/Graphics/SVG/1.1/DTD/svg11.dtd"><svg t="1777700534396" class="icon" viewBox="0 0 1025 1024" version="1.1" xmlns="http://www.w3.org/2000/svg" p-id="15358" xmlns:xlink="http://www.w3.org/1999/xlink" width="200.1953125" height="200"><path d="M1016.17367 672.274a31.94 31.94 0 0 0-45.163 0L759.60067 883.717l-146.988-147.02a31.94 31.94 0 0 0-45.163 45.164l169.601 169.601a31.94 31.94 0 0 0 45.132 0l233.992-234.025a31.94 31.94 0 0 0 0-45.163zM244.88567 188.446a31.94 31.94 0 0 0 31.94-31.94V31.94a31.94 31.94 0 1 0-63.88 0v124.566a31.94 31.94 0 0 0 31.94 31.94zM63.88167 134.308h85.184v-63.88H38.16967A38.52 38.52 0 0 0 0.00167 109.17v876.084a38.52 38.52 0 0 0 38.168 38.743h489.002v-63.88H63.88167z m750.591 468.624h63.88v-493.76a38.52 38.52 0 0 0-38.168-38.744H729.28867v63.88h85.184zM340.70567 70.428h196.91v63.88h-196.91z m292.763 118.018a31.94 31.94 0 0 0 31.94-31.94V31.94a31.94 31.94 0 0 0-63.88 0v124.566a31.94 31.94 0 0 0 31.94 31.94z" fill="#575869" p-id="15359"></path><path d="M165.99367 320.646H573.74067v63.88H165.99367z m-6.292 217.96h276.92v63.88h-276.92z m0 217.99h186.37v63.88h-186.37z" fill="#575869" p-id="15360"></path></svg>